# xmcd
#
# Track frame offsets:
#	150
#	18577
#	40034
#	47399
#	75808
#	104408
#	125381
#	139294
#	160866
#	178157
#
# Disc length: 2664 seconds
#
# Revision: 0
# Processed by: cddbd v1.5.2PL0 Copyright (c) Steve Scherf et al.
# Submitted via: EZCDAudioConverter 2.1.3.1
#
DISCID=750a660a
DTITLE=Thai Hoa - Lang Le Noi Nay
DYEAR=2004
DGENRE=Pop
TTITLE0=Trong Noi Dau Tinh Co
TTITLE1=Tinh Nho
TTITLE2=Dieu Ru Mau Le
TTITLE3=Nguoi Ve Bong Nho
TTITLE4=Em Con Nho Hay Em Da Quen
TTITLE5=Doi Goi Em Biet Bao Lan
TTITLE6=Tinh Khuc O'bai
TTITLE7=Chieu Mot Minh Qua Pho
TTITLE8=Ngau Nhien
TTITLE9=Lang Le Noi Nay
EXTD=
EXTT0=
EXTT1=
EXTT2=
EXTT3=
EXTT4=
EXTT5=
EXTT6=
EXTT7=
EXTT8=
EXTT9=
PLAYORDER=
